<mxfile host="app.diagrams.net" modified="2024-05-26T20:23:52.320Z" agent="Mozilla/5.0 (Windows NT 10.0; Win64; x64) AppleWebKit/537.36 (KHTML, like Gecko) Chrome/125.0.0.0 Safari/537.36" etag="ITP8AvAbcYtCGHPjbWzG" version="24.4.4" type="device">
  <diagram id="R2lEEEUBdFMjLlhIrx00" name="Page-1">
    <mxGraphModel dx="1323" dy="1857" grid="1" gridSize="10" guides="1" tooltips="1" connect="1" arrows="1" fold="1" page="1" pageScale="1" pageWidth="850" pageHeight="1100" math="0" shadow="0" extFonts="Permanent Marker^https://fonts.googleapis.com/css?family=Permanent+Marker">
      <root>
        <mxCell id="0" />
        <mxCell id="1" parent="0" />
        <mxCell id="C-vyLk0tnHw3VtMMgP7b-23" value="Categorias" style="shape=table;startSize=30;container=1;collapsible=1;childLayout=tableLayout;fixedRows=1;rowLines=0;fontStyle=1;align=center;resizeLast=1;" parent="1" vertex="1">
          <mxGeometry x="840" y="-40" width="250" height="170" as="geometry" />
        </mxCell>
        <mxCell id="C-vyLk0tnHw3VtMMgP7b-24" value="" style="shape=partialRectangle;collapsible=0;dropTarget=0;pointerEvents=0;fillColor=none;points=[[0,0.5],[1,0.5]];portConstraint=eastwest;top=0;left=0;right=0;bottom=1;" parent="C-vyLk0tnHw3VtMMgP7b-23" vertex="1">
          <mxGeometry y="30" width="250" height="30" as="geometry" />
        </mxCell>
        <mxCell id="C-vyLk0tnHw3VtMMgP7b-25" value="PK" style="shape=partialRectangle;overflow=hidden;connectable=0;fillColor=none;top=0;left=0;bottom=0;right=0;fontStyle=1;" parent="C-vyLk0tnHw3VtMMgP7b-24" vertex="1">
          <mxGeometry width="30" height="30" as="geometry">
            <mxRectangle width="30" height="30" as="alternateBounds" />
          </mxGeometry>
        </mxCell>
        <mxCell id="C-vyLk0tnHw3VtMMgP7b-26" value="id_categoria" style="shape=partialRectangle;overflow=hidden;connectable=0;fillColor=none;top=0;left=0;bottom=0;right=0;align=left;spacingLeft=6;fontStyle=5;" parent="C-vyLk0tnHw3VtMMgP7b-24" vertex="1">
          <mxGeometry x="30" width="220" height="30" as="geometry">
            <mxRectangle width="220" height="30" as="alternateBounds" />
          </mxGeometry>
        </mxCell>
        <mxCell id="C-vyLk0tnHw3VtMMgP7b-27" value="" style="shape=partialRectangle;collapsible=0;dropTarget=0;pointerEvents=0;fillColor=none;points=[[0,0.5],[1,0.5]];portConstraint=eastwest;top=0;left=0;right=0;bottom=0;" parent="C-vyLk0tnHw3VtMMgP7b-23" vertex="1">
          <mxGeometry y="60" width="250" height="30" as="geometry" />
        </mxCell>
        <mxCell id="C-vyLk0tnHw3VtMMgP7b-28" value="" style="shape=partialRectangle;overflow=hidden;connectable=0;fillColor=none;top=0;left=0;bottom=0;right=0;" parent="C-vyLk0tnHw3VtMMgP7b-27" vertex="1">
          <mxGeometry width="30" height="30" as="geometry">
            <mxRectangle width="30" height="30" as="alternateBounds" />
          </mxGeometry>
        </mxCell>
        <mxCell id="C-vyLk0tnHw3VtMMgP7b-29" value="nombre NOT NULL" style="shape=partialRectangle;overflow=hidden;connectable=0;fillColor=none;top=0;left=0;bottom=0;right=0;align=left;spacingLeft=6;" parent="C-vyLk0tnHw3VtMMgP7b-27" vertex="1">
          <mxGeometry x="30" width="220" height="30" as="geometry">
            <mxRectangle width="220" height="30" as="alternateBounds" />
          </mxGeometry>
        </mxCell>
        <mxCell id="jYscwoyKgJWhg-Qc2eCs-4" value="" style="endArrow=classic;html=1;rounded=0;exitX=1;exitY=0.5;exitDx=0;exitDy=0;entryX=1;entryY=0.75;entryDx=0;entryDy=0;edgeStyle=orthogonalEdgeStyle;" edge="1" parent="C-vyLk0tnHw3VtMMgP7b-23" source="C-vyLk0tnHw3VtMMgP7b-24" target="C-vyLk0tnHw3VtMMgP7b-23">
          <mxGeometry width="50" height="50" relative="1" as="geometry">
            <mxPoint x="320" y="80" as="sourcePoint" />
            <mxPoint x="370" y="30" as="targetPoint" />
            <Array as="points">
              <mxPoint x="310" y="45" />
              <mxPoint x="310" y="128" />
            </Array>
          </mxGeometry>
        </mxCell>
        <mxCell id="Fk9vVuh8kFgdgYr4Rpxz-1" value="&amp;nbsp; &amp;nbsp; &amp;nbsp; &amp;nbsp; &amp;nbsp; &amp;nbsp; &amp;nbsp; &amp;nbsp; &amp;nbsp; &amp;nbsp; &amp;nbsp; &amp;nbsp; &amp;nbsp; &amp;nbsp;descripcion" style="text;html=1;align=center;verticalAlign=middle;resizable=0;points=[];autosize=1;strokeColor=none;fillColor=none;" parent="1" vertex="1">
          <mxGeometry x="780" y="48" width="170" height="30" as="geometry" />
        </mxCell>
        <mxCell id="Fk9vVuh8kFgdgYr4Rpxz-2" value="" style="endArrow=none;html=1;rounded=0;" parent="1" edge="1">
          <mxGeometry width="50" height="50" relative="1" as="geometry">
            <mxPoint x="870" y="40" as="sourcePoint" />
            <mxPoint x="870" y="130" as="targetPoint" />
          </mxGeometry>
        </mxCell>
        <mxCell id="Fk9vVuh8kFgdgYr4Rpxz-3" value="" style="rounded=0;whiteSpace=wrap;html=1;" parent="1" vertex="1">
          <mxGeometry x="510" y="187.6" width="240" height="150" as="geometry" />
        </mxCell>
        <mxCell id="Fk9vVuh8kFgdgYr4Rpxz-4" value="" style="endArrow=none;html=1;rounded=0;exitX=0;exitY=0.25;exitDx=0;exitDy=0;entryX=1;entryY=0.25;entryDx=0;entryDy=0;" parent="1" source="Fk9vVuh8kFgdgYr4Rpxz-3" target="Fk9vVuh8kFgdgYr4Rpxz-3" edge="1">
          <mxGeometry width="50" height="50" relative="1" as="geometry">
            <mxPoint x="510" y="297.6" as="sourcePoint" />
            <mxPoint x="560" y="247.6" as="targetPoint" />
          </mxGeometry>
        </mxCell>
        <mxCell id="Fk9vVuh8kFgdgYr4Rpxz-6" value="" style="endArrow=none;html=1;rounded=0;exitX=0.176;exitY=1.016;exitDx=0;exitDy=0;exitPerimeter=0;" parent="1" source="Fk9vVuh8kFgdgYr4Rpxz-3" edge="1">
          <mxGeometry width="50" height="50" relative="1" as="geometry">
            <mxPoint x="510" y="297.6" as="sourcePoint" />
            <mxPoint x="552" y="227.6" as="targetPoint" />
          </mxGeometry>
        </mxCell>
        <mxCell id="Fk9vVuh8kFgdgYr4Rpxz-7" value="&lt;b&gt;&lt;font style=&quot;font-size: 14px;&quot;&gt;Proveedores&lt;/font&gt;&lt;/b&gt;" style="text;html=1;align=center;verticalAlign=middle;resizable=0;points=[];autosize=1;strokeColor=none;fillColor=none;" parent="1" vertex="1">
          <mxGeometry x="590" y="197.6" width="110" height="30" as="geometry" />
        </mxCell>
        <mxCell id="Fk9vVuh8kFgdgYr4Rpxz-8" value="" style="rounded=0;whiteSpace=wrap;html=1;" parent="1" vertex="1">
          <mxGeometry x="844.88" y="537.6" width="240" height="170" as="geometry" />
        </mxCell>
        <mxCell id="Fk9vVuh8kFgdgYr4Rpxz-9" value="" style="endArrow=none;html=1;rounded=0;exitX=0.011;exitY=0.188;exitDx=0;exitDy=0;entryX=1.001;entryY=0.179;entryDx=0;entryDy=0;exitPerimeter=0;entryPerimeter=0;" parent="1" source="Fk9vVuh8kFgdgYr4Rpxz-8" target="Fk9vVuh8kFgdgYr4Rpxz-8" edge="1">
          <mxGeometry width="50" height="50" relative="1" as="geometry">
            <mxPoint x="844.88" y="647.6" as="sourcePoint" />
            <mxPoint x="894.88" y="597.6" as="targetPoint" />
            <Array as="points" />
          </mxGeometry>
        </mxCell>
        <mxCell id="Fk9vVuh8kFgdgYr4Rpxz-10" value="" style="endArrow=none;html=1;rounded=0;entryX=-0.043;entryY=0;entryDx=0;entryDy=0;entryPerimeter=0;" parent="1" target="Fk9vVuh8kFgdgYr4Rpxz-39" edge="1">
          <mxGeometry width="50" height="50" relative="1" as="geometry">
            <mxPoint x="886.88" y="707.6" as="sourcePoint" />
            <mxPoint x="886.88" y="577.6" as="targetPoint" />
          </mxGeometry>
        </mxCell>
        <mxCell id="Fk9vVuh8kFgdgYr4Rpxz-11" value="&lt;b&gt;&lt;font style=&quot;font-size: 14px;&quot;&gt;Clientes&lt;/font&gt;&lt;/b&gt;" style="text;html=1;align=center;verticalAlign=middle;resizable=0;points=[];autosize=1;strokeColor=none;fillColor=none;" parent="1" vertex="1">
          <mxGeometry x="924.88" y="537.6" width="80" height="30" as="geometry" />
        </mxCell>
        <mxCell id="Fk9vVuh8kFgdgYr4Rpxz-13" value="" style="rounded=0;whiteSpace=wrap;html=1;" parent="1" vertex="1">
          <mxGeometry x="850" y="190" width="240" height="270" as="geometry" />
        </mxCell>
        <mxCell id="Fk9vVuh8kFgdgYr4Rpxz-14" value="" style="endArrow=none;html=1;rounded=0;exitX=0;exitY=0.25;exitDx=0;exitDy=0;entryX=1;entryY=0.25;entryDx=0;entryDy=0;" parent="1" edge="1">
          <mxGeometry width="50" height="50" relative="1" as="geometry">
            <mxPoint x="850" y="230" as="sourcePoint" />
            <mxPoint x="1090" y="230" as="targetPoint" />
          </mxGeometry>
        </mxCell>
        <mxCell id="Fk9vVuh8kFgdgYr4Rpxz-15" value="" style="endArrow=none;html=1;rounded=0;exitX=0.176;exitY=1.016;exitDx=0;exitDy=0;exitPerimeter=0;" parent="1" source="Fk9vVuh8kFgdgYr4Rpxz-13" edge="1">
          <mxGeometry width="50" height="50" relative="1" as="geometry">
            <mxPoint x="950" y="400" as="sourcePoint" />
            <mxPoint x="892" y="230" as="targetPoint" />
          </mxGeometry>
        </mxCell>
        <mxCell id="Fk9vVuh8kFgdgYr4Rpxz-16" value="&lt;b&gt;&lt;font style=&quot;font-size: 14px;&quot;&gt;Productos&lt;/font&gt;&lt;/b&gt;" style="text;html=1;align=center;verticalAlign=middle;resizable=0;points=[];autosize=1;strokeColor=none;fillColor=none;" parent="1" vertex="1">
          <mxGeometry x="940" y="200" width="90" height="30" as="geometry" />
        </mxCell>
        <mxCell id="Fk9vVuh8kFgdgYr4Rpxz-17" value="" style="rounded=0;whiteSpace=wrap;html=1;" parent="1" vertex="1">
          <mxGeometry x="1230" y="467.6" width="240" height="150" as="geometry" />
        </mxCell>
        <mxCell id="Fk9vVuh8kFgdgYr4Rpxz-18" value="" style="endArrow=none;html=1;rounded=0;exitX=0;exitY=0.25;exitDx=0;exitDy=0;entryX=1;entryY=0.25;entryDx=0;entryDy=0;" parent="1" source="Fk9vVuh8kFgdgYr4Rpxz-17" target="Fk9vVuh8kFgdgYr4Rpxz-17" edge="1">
          <mxGeometry width="50" height="50" relative="1" as="geometry">
            <mxPoint x="1230" y="577.6" as="sourcePoint" />
            <mxPoint x="1280" y="527.6" as="targetPoint" />
          </mxGeometry>
        </mxCell>
        <mxCell id="Fk9vVuh8kFgdgYr4Rpxz-19" value="" style="endArrow=none;html=1;rounded=0;exitX=0.176;exitY=1.016;exitDx=0;exitDy=0;exitPerimeter=0;" parent="1" source="Fk9vVuh8kFgdgYr4Rpxz-17" edge="1">
          <mxGeometry width="50" height="50" relative="1" as="geometry">
            <mxPoint x="1230" y="577.6" as="sourcePoint" />
            <mxPoint x="1272" y="507.6" as="targetPoint" />
          </mxGeometry>
        </mxCell>
        <mxCell id="Fk9vVuh8kFgdgYr4Rpxz-20" value="&lt;span style=&quot;font-size: 14px;&quot;&gt;&lt;b&gt;Pedidos&lt;/b&gt;&lt;/span&gt;" style="text;html=1;align=center;verticalAlign=middle;resizable=0;points=[];autosize=1;strokeColor=none;fillColor=none;" parent="1" vertex="1">
          <mxGeometry x="1325" y="477.6" width="80" height="30" as="geometry" />
        </mxCell>
        <mxCell id="Fk9vVuh8kFgdgYr4Rpxz-26" value="" style="rounded=0;whiteSpace=wrap;html=1;" parent="1" vertex="1">
          <mxGeometry x="1210" y="168.8" width="240" height="150" as="geometry" />
        </mxCell>
        <mxCell id="Fk9vVuh8kFgdgYr4Rpxz-27" value="" style="endArrow=none;html=1;rounded=0;exitX=0;exitY=0.25;exitDx=0;exitDy=0;entryX=1;entryY=0.25;entryDx=0;entryDy=0;" parent="1" source="Fk9vVuh8kFgdgYr4Rpxz-26" target="Fk9vVuh8kFgdgYr4Rpxz-26" edge="1">
          <mxGeometry width="50" height="50" relative="1" as="geometry">
            <mxPoint x="1210" y="278.8" as="sourcePoint" />
            <mxPoint x="1260" y="228.8" as="targetPoint" />
          </mxGeometry>
        </mxCell>
        <mxCell id="Fk9vVuh8kFgdgYr4Rpxz-28" value="" style="endArrow=none;html=1;rounded=0;exitX=0.176;exitY=1.016;exitDx=0;exitDy=0;exitPerimeter=0;" parent="1" source="Fk9vVuh8kFgdgYr4Rpxz-26" edge="1">
          <mxGeometry width="50" height="50" relative="1" as="geometry">
            <mxPoint x="1210" y="278.8" as="sourcePoint" />
            <mxPoint x="1252" y="208.8" as="targetPoint" />
          </mxGeometry>
        </mxCell>
        <mxCell id="Fk9vVuh8kFgdgYr4Rpxz-29" value="&lt;b&gt;&lt;font style=&quot;font-size: 14px;&quot;&gt;Detalles_Pedidos&lt;/font&gt;&lt;/b&gt;" style="text;html=1;align=center;verticalAlign=middle;resizable=0;points=[];autosize=1;strokeColor=none;fillColor=none;" parent="1" vertex="1">
          <mxGeometry x="1275" y="178.8" width="140" height="30" as="geometry" />
        </mxCell>
        <mxCell id="Fk9vVuh8kFgdgYr4Rpxz-30" value="" style="rounded=0;whiteSpace=wrap;html=1;" parent="1" vertex="1">
          <mxGeometry x="1240" y="680" width="240" height="150" as="geometry" />
        </mxCell>
        <mxCell id="Fk9vVuh8kFgdgYr4Rpxz-31" value="" style="endArrow=none;html=1;rounded=0;exitX=0;exitY=0.25;exitDx=0;exitDy=0;entryX=1;entryY=0.25;entryDx=0;entryDy=0;" parent="1" source="Fk9vVuh8kFgdgYr4Rpxz-30" target="Fk9vVuh8kFgdgYr4Rpxz-30" edge="1">
          <mxGeometry width="50" height="50" relative="1" as="geometry">
            <mxPoint x="1240" y="790" as="sourcePoint" />
            <mxPoint x="1290" y="740" as="targetPoint" />
          </mxGeometry>
        </mxCell>
        <mxCell id="Fk9vVuh8kFgdgYr4Rpxz-32" value="" style="endArrow=none;html=1;rounded=0;exitX=0.176;exitY=1.016;exitDx=0;exitDy=0;exitPerimeter=0;" parent="1" source="Fk9vVuh8kFgdgYr4Rpxz-30" edge="1">
          <mxGeometry width="50" height="50" relative="1" as="geometry">
            <mxPoint x="1240" y="790" as="sourcePoint" />
            <mxPoint x="1282" y="720" as="targetPoint" />
          </mxGeometry>
        </mxCell>
        <mxCell id="Fk9vVuh8kFgdgYr4Rpxz-33" value="&lt;b&gt;&lt;font style=&quot;font-size: 14px;&quot;&gt;Comentarios&lt;/font&gt;&lt;/b&gt;" style="text;html=1;align=center;verticalAlign=middle;resizable=0;points=[];autosize=1;strokeColor=none;fillColor=none;" parent="1" vertex="1">
          <mxGeometry x="1320" y="690" width="110" height="30" as="geometry" />
        </mxCell>
        <mxCell id="Fk9vVuh8kFgdgYr4Rpxz-34" value="PK" style="text;html=1;align=center;verticalAlign=middle;resizable=0;points=[];autosize=1;strokeColor=none;fillColor=none;" parent="1" vertex="1">
          <mxGeometry x="510" y="227.6" width="40" height="30" as="geometry" />
        </mxCell>
        <mxCell id="Fk9vVuh8kFgdgYr4Rpxz-35" value="id_proveedor" style="text;html=1;align=center;verticalAlign=middle;resizable=0;points=[];autosize=1;strokeColor=none;fillColor=none;" parent="1" vertex="1">
          <mxGeometry x="550" y="227.6" width="90" height="30" as="geometry" />
        </mxCell>
        <mxCell id="Fk9vVuh8kFgdgYr4Rpxz-36" value="nombre&amp;nbsp; &amp;nbsp; Not Null" style="text;html=1;align=center;verticalAlign=middle;resizable=0;points=[];autosize=1;strokeColor=none;fillColor=none;" parent="1" vertex="1">
          <mxGeometry x="550" y="257.6" width="120" height="30" as="geometry" />
        </mxCell>
        <mxCell id="Fk9vVuh8kFgdgYr4Rpxz-37" value="contacto" style="text;html=1;align=center;verticalAlign=middle;resizable=0;points=[];autosize=1;strokeColor=none;fillColor=none;" parent="1" vertex="1">
          <mxGeometry x="550" y="287.6" width="70" height="30" as="geometry" />
        </mxCell>
        <mxCell id="Fk9vVuh8kFgdgYr4Rpxz-38" value="PK" style="text;html=1;align=center;verticalAlign=middle;resizable=0;points=[];autosize=1;strokeColor=none;fillColor=none;" parent="1" vertex="1">
          <mxGeometry x="844.88" y="567.6" width="40" height="30" as="geometry" />
        </mxCell>
        <mxCell id="Fk9vVuh8kFgdgYr4Rpxz-39" value="id_cliente" style="text;html=1;align=center;verticalAlign=middle;resizable=0;points=[];autosize=1;strokeColor=none;fillColor=none;" parent="1" vertex="1">
          <mxGeometry x="889.88" y="567.6" width="70" height="30" as="geometry" />
        </mxCell>
        <mxCell id="Fk9vVuh8kFgdgYr4Rpxz-41" value="nombre NOT NULL" style="text;html=1;align=center;verticalAlign=middle;resizable=0;points=[];autosize=1;strokeColor=none;fillColor=none;" parent="1" vertex="1">
          <mxGeometry x="884.88" y="597.6" width="130" height="30" as="geometry" />
        </mxCell>
        <mxCell id="Fk9vVuh8kFgdgYr4Rpxz-43" value="email NOT NULL" style="text;html=1;align=center;verticalAlign=middle;resizable=0;points=[];autosize=1;strokeColor=none;fillColor=none;" parent="1" vertex="1">
          <mxGeometry x="889.88" y="627.6" width="110" height="30" as="geometry" />
        </mxCell>
        <mxCell id="Fk9vVuh8kFgdgYr4Rpxz-44" value="UQ" style="text;html=1;align=center;verticalAlign=middle;resizable=0;points=[];autosize=1;strokeColor=none;fillColor=none;" parent="1" vertex="1">
          <mxGeometry x="844.88" y="627.6" width="40" height="30" as="geometry" />
        </mxCell>
        <mxCell id="Fk9vVuh8kFgdgYr4Rpxz-45" value="direccion" style="text;html=1;align=center;verticalAlign=middle;resizable=0;points=[];autosize=1;strokeColor=none;fillColor=none;" parent="1" vertex="1">
          <mxGeometry x="889.88" y="657.6" width="70" height="30" as="geometry" />
        </mxCell>
        <mxCell id="Fk9vVuh8kFgdgYr4Rpxz-46" value="PK" style="text;html=1;align=center;verticalAlign=middle;resizable=0;points=[];autosize=1;strokeColor=none;fillColor=none;" parent="1" vertex="1">
          <mxGeometry x="850" y="230" width="40" height="30" as="geometry" />
        </mxCell>
        <mxCell id="Fk9vVuh8kFgdgYr4Rpxz-47" value="id_producto" style="text;html=1;align=center;verticalAlign=middle;resizable=0;points=[];autosize=1;strokeColor=none;fillColor=none;" parent="1" vertex="1">
          <mxGeometry x="890" y="230" width="90" height="30" as="geometry" />
        </mxCell>
        <mxCell id="Fk9vVuh8kFgdgYr4Rpxz-48" value="id_categoria NOT NULL" style="text;html=1;align=center;verticalAlign=middle;resizable=0;points=[];autosize=1;strokeColor=none;fillColor=none;" parent="1" vertex="1">
          <mxGeometry x="890" y="260" width="150" height="30" as="geometry" />
        </mxCell>
        <mxCell id="Fk9vVuh8kFgdgYr4Rpxz-49" value="id_proveedor NOT NULL" style="text;html=1;align=center;verticalAlign=middle;resizable=0;points=[];autosize=1;strokeColor=none;fillColor=none;" parent="1" vertex="1">
          <mxGeometry x="890" y="290" width="160" height="30" as="geometry" />
        </mxCell>
        <mxCell id="Fk9vVuh8kFgdgYr4Rpxz-50" value="nombre" style="text;html=1;align=center;verticalAlign=middle;resizable=0;points=[];autosize=1;strokeColor=none;fillColor=none;" parent="1" vertex="1">
          <mxGeometry x="890" y="320" width="60" height="30" as="geometry" />
        </mxCell>
        <mxCell id="Fk9vVuh8kFgdgYr4Rpxz-51" value="descripcion" style="text;html=1;align=center;verticalAlign=middle;resizable=0;points=[];autosize=1;strokeColor=none;fillColor=none;" parent="1" vertex="1">
          <mxGeometry x="890" y="350" width="80" height="30" as="geometry" />
        </mxCell>
        <mxCell id="Fk9vVuh8kFgdgYr4Rpxz-52" value="precio NOT NULL" style="text;html=1;align=center;verticalAlign=middle;resizable=0;points=[];autosize=1;strokeColor=none;fillColor=none;" parent="1" vertex="1">
          <mxGeometry x="890" y="380" width="120" height="30" as="geometry" />
        </mxCell>
        <mxCell id="Fk9vVuh8kFgdgYr4Rpxz-53" value="stock NOT NULL" style="text;html=1;align=center;verticalAlign=middle;resizable=0;points=[];autosize=1;strokeColor=none;fillColor=none;" parent="1" vertex="1">
          <mxGeometry x="895" y="410" width="110" height="30" as="geometry" />
        </mxCell>
        <mxCell id="Fk9vVuh8kFgdgYr4Rpxz-54" value="FK" style="text;html=1;align=center;verticalAlign=middle;resizable=0;points=[];autosize=1;strokeColor=none;fillColor=none;" parent="1" vertex="1">
          <mxGeometry x="850" y="260" width="40" height="30" as="geometry" />
        </mxCell>
        <mxCell id="Fk9vVuh8kFgdgYr4Rpxz-55" value="FK" style="text;html=1;align=center;verticalAlign=middle;resizable=0;points=[];autosize=1;strokeColor=none;fillColor=none;" parent="1" vertex="1">
          <mxGeometry x="850" y="290" width="40" height="30" as="geometry" />
        </mxCell>
        <mxCell id="Fk9vVuh8kFgdgYr4Rpxz-56" value="PK" style="text;html=1;align=center;verticalAlign=middle;resizable=0;points=[];autosize=1;strokeColor=none;fillColor=none;" parent="1" vertex="1">
          <mxGeometry x="1230" y="507.6" width="40" height="30" as="geometry" />
        </mxCell>
        <mxCell id="Fk9vVuh8kFgdgYr4Rpxz-57" value="id_pedido" style="text;html=1;align=center;verticalAlign=middle;resizable=0;points=[];autosize=1;strokeColor=none;fillColor=none;" parent="1" vertex="1">
          <mxGeometry x="1270" y="507.6" width="80" height="30" as="geometry" />
        </mxCell>
        <mxCell id="Fk9vVuh8kFgdgYr4Rpxz-58" value="id_cliente" style="text;html=1;align=center;verticalAlign=middle;resizable=0;points=[];autosize=1;strokeColor=none;fillColor=none;" parent="1" vertex="1">
          <mxGeometry x="1280" y="537.6" width="70" height="30" as="geometry" />
        </mxCell>
        <mxCell id="Fk9vVuh8kFgdgYr4Rpxz-59" value="FK" style="text;html=1;align=center;verticalAlign=middle;resizable=0;points=[];autosize=1;strokeColor=none;fillColor=none;" parent="1" vertex="1">
          <mxGeometry x="1230" y="537.6" width="40" height="30" as="geometry" />
        </mxCell>
        <mxCell id="Fk9vVuh8kFgdgYr4Rpxz-60" value="fecha" style="text;html=1;align=center;verticalAlign=middle;resizable=0;points=[];autosize=1;strokeColor=none;fillColor=none;" parent="1" vertex="1">
          <mxGeometry x="1285" y="567.6" width="50" height="30" as="geometry" />
        </mxCell>
        <mxCell id="Fk9vVuh8kFgdgYr4Rpxz-61" value="PK" style="text;html=1;align=center;verticalAlign=middle;resizable=0;points=[];autosize=1;strokeColor=none;fillColor=none;" parent="1" vertex="1">
          <mxGeometry x="1210" y="208.8" width="40" height="30" as="geometry" />
        </mxCell>
        <mxCell id="Fk9vVuh8kFgdgYr4Rpxz-62" value="id_pedido" style="text;html=1;align=center;verticalAlign=middle;resizable=0;points=[];autosize=1;strokeColor=none;fillColor=none;" parent="1" vertex="1">
          <mxGeometry x="1250" y="208.8" width="80" height="30" as="geometry" />
        </mxCell>
        <mxCell id="Fk9vVuh8kFgdgYr4Rpxz-63" value="PK" style="text;html=1;align=center;verticalAlign=middle;resizable=0;points=[];autosize=1;strokeColor=none;fillColor=none;" parent="1" vertex="1">
          <mxGeometry x="1210" y="228.8" width="40" height="30" as="geometry" />
        </mxCell>
        <mxCell id="Fk9vVuh8kFgdgYr4Rpxz-64" value="id_producto" style="text;html=1;align=center;verticalAlign=middle;resizable=0;points=[];autosize=1;strokeColor=none;fillColor=none;" parent="1" vertex="1">
          <mxGeometry x="1250" y="228.8" width="90" height="30" as="geometry" />
        </mxCell>
        <mxCell id="Fk9vVuh8kFgdgYr4Rpxz-65" value="cantidad NOT NULL" style="text;html=1;align=center;verticalAlign=middle;resizable=0;points=[];autosize=1;strokeColor=none;fillColor=none;" parent="1" vertex="1">
          <mxGeometry x="1250" y="258.8" width="130" height="30" as="geometry" />
        </mxCell>
        <mxCell id="Fk9vVuh8kFgdgYr4Rpxz-66" value="precio NOT NULL" style="text;html=1;align=center;verticalAlign=middle;resizable=0;points=[];autosize=1;strokeColor=none;fillColor=none;" parent="1" vertex="1">
          <mxGeometry x="1250" y="288.8" width="120" height="30" as="geometry" />
        </mxCell>
        <mxCell id="Fk9vVuh8kFgdgYr4Rpxz-67" value="FK" style="text;html=1;align=center;verticalAlign=middle;resizable=0;points=[];autosize=1;strokeColor=none;fillColor=none;" parent="1" vertex="1">
          <mxGeometry x="1410" y="208.8" width="40" height="30" as="geometry" />
        </mxCell>
        <mxCell id="Fk9vVuh8kFgdgYr4Rpxz-68" value="FK" style="text;html=1;align=center;verticalAlign=middle;resizable=0;points=[];autosize=1;strokeColor=none;fillColor=none;" parent="1" vertex="1">
          <mxGeometry x="1410" y="228.8" width="40" height="30" as="geometry" />
        </mxCell>
        <mxCell id="Fk9vVuh8kFgdgYr4Rpxz-69" value="id_comentario" style="text;html=1;align=center;verticalAlign=middle;resizable=0;points=[];autosize=1;strokeColor=none;fillColor=none;" parent="1" vertex="1">
          <mxGeometry x="1280" y="720" width="100" height="30" as="geometry" />
        </mxCell>
        <mxCell id="Fk9vVuh8kFgdgYr4Rpxz-70" value="PK" style="text;html=1;align=center;verticalAlign=middle;resizable=0;points=[];autosize=1;strokeColor=none;fillColor=none;" parent="1" vertex="1">
          <mxGeometry x="1240" y="720" width="40" height="30" as="geometry" />
        </mxCell>
        <mxCell id="Fk9vVuh8kFgdgYr4Rpxz-71" value="id_pedido" style="text;html=1;align=center;verticalAlign=middle;resizable=0;points=[];autosize=1;strokeColor=none;fillColor=none;" parent="1" vertex="1">
          <mxGeometry x="1280" y="740" width="80" height="30" as="geometry" />
        </mxCell>
        <mxCell id="Fk9vVuh8kFgdgYr4Rpxz-72" value="FK" style="text;html=1;align=center;verticalAlign=middle;resizable=0;points=[];autosize=1;strokeColor=none;fillColor=none;" parent="1" vertex="1">
          <mxGeometry x="1240" y="740" width="40" height="30" as="geometry" />
        </mxCell>
        <mxCell id="Fk9vVuh8kFgdgYr4Rpxz-73" value="texto" style="text;html=1;align=center;verticalAlign=middle;resizable=0;points=[];autosize=1;strokeColor=none;fillColor=none;" parent="1" vertex="1">
          <mxGeometry x="1280" y="760" width="50" height="30" as="geometry" />
        </mxCell>
        <mxCell id="Fk9vVuh8kFgdgYr4Rpxz-74" value="" style="endArrow=classic;html=1;rounded=0;exitX=-0.071;exitY=0.396;exitDx=0;exitDy=0;exitPerimeter=0;entryX=0;entryY=0.5;entryDx=0;entryDy=0;" parent="1" source="Fk9vVuh8kFgdgYr4Rpxz-54" target="C-vyLk0tnHw3VtMMgP7b-24" edge="1">
          <mxGeometry width="50" height="50" relative="1" as="geometry">
            <mxPoint x="720" y="140" as="sourcePoint" />
            <mxPoint x="790" y="-40" as="targetPoint" />
            <Array as="points">
              <mxPoint x="790" y="270" />
              <mxPoint x="790" y="5" />
            </Array>
          </mxGeometry>
        </mxCell>
        <mxCell id="Fk9vVuh8kFgdgYr4Rpxz-75" value="" style="endArrow=classic;html=1;rounded=0;exitX=-0.024;exitY=0.4;exitDx=0;exitDy=0;exitPerimeter=0;entryX=-0.065;entryY=0.409;entryDx=0;entryDy=0;entryPerimeter=0;" parent="1" source="Fk9vVuh8kFgdgYr4Rpxz-55" target="Fk9vVuh8kFgdgYr4Rpxz-34" edge="1">
          <mxGeometry width="50" height="50" relative="1" as="geometry">
            <mxPoint x="720" y="450" as="sourcePoint" />
            <mxPoint x="770" y="400" as="targetPoint" />
            <Array as="points">
              <mxPoint x="800" y="300" />
              <mxPoint x="800" y="400" />
              <mxPoint x="440" y="400" />
              <mxPoint x="440" y="240" />
            </Array>
          </mxGeometry>
        </mxCell>
        <mxCell id="Fk9vVuh8kFgdgYr4Rpxz-76" value="" style="endArrow=classic;html=1;rounded=0;exitX=-0.035;exitY=0.51;exitDx=0;exitDy=0;exitPerimeter=0;entryX=1.024;entryY=0.209;entryDx=0;entryDy=0;entryPerimeter=0;" parent="1" source="Fk9vVuh8kFgdgYr4Rpxz-63" target="Fk9vVuh8kFgdgYr4Rpxz-13" edge="1">
          <mxGeometry width="50" height="50" relative="1" as="geometry">
            <mxPoint x="1050" y="520" as="sourcePoint" />
            <mxPoint x="1100" y="470" as="targetPoint" />
          </mxGeometry>
        </mxCell>
        <mxCell id="Fk9vVuh8kFgdgYr4Rpxz-77" value="" style="endArrow=classic;html=1;rounded=0;exitX=1.082;exitY=0.252;exitDx=0;exitDy=0;exitPerimeter=0;entryX=1.017;entryY=0.383;entryDx=0;entryDy=0;entryPerimeter=0;" parent="1" source="Fk9vVuh8kFgdgYr4Rpxz-67" target="Fk9vVuh8kFgdgYr4Rpxz-17" edge="1">
          <mxGeometry width="50" height="50" relative="1" as="geometry">
            <mxPoint x="1150" y="450" as="sourcePoint" />
            <mxPoint x="1200" y="400" as="targetPoint" />
            <Array as="points">
              <mxPoint x="1560" y="216" />
              <mxPoint x="1550" y="520" />
            </Array>
          </mxGeometry>
        </mxCell>
        <mxCell id="Fk9vVuh8kFgdgYr4Rpxz-78" value="" style="endArrow=classic;html=1;rounded=0;exitX=-0.041;exitY=0.366;exitDx=0;exitDy=0;exitPerimeter=0;entryX=1;entryY=0.25;entryDx=0;entryDy=0;" parent="1" source="Fk9vVuh8kFgdgYr4Rpxz-59" target="Fk9vVuh8kFgdgYr4Rpxz-8" edge="1">
          <mxGeometry width="50" height="50" relative="1" as="geometry">
            <mxPoint x="1050" y="720" as="sourcePoint" />
            <mxPoint x="1100" y="670" as="targetPoint" />
            <Array as="points">
              <mxPoint x="1160" y="549" />
              <mxPoint x="1160" y="580" />
            </Array>
          </mxGeometry>
        </mxCell>
        <mxCell id="Fk9vVuh8kFgdgYr4Rpxz-79" value="" style="endArrow=classic;html=1;rounded=0;exitX=-0.009;exitY=0.498;exitDx=0;exitDy=0;exitPerimeter=0;entryX=0.006;entryY=0.456;entryDx=0;entryDy=0;entryPerimeter=0;" parent="1" source="Fk9vVuh8kFgdgYr4Rpxz-70" target="Fk9vVuh8kFgdgYr4Rpxz-56" edge="1">
          <mxGeometry width="50" height="50" relative="1" as="geometry">
            <mxPoint x="1570" y="710" as="sourcePoint" />
            <mxPoint x="1620" y="660" as="targetPoint" />
            <Array as="points">
              <mxPoint x="1200" y="735" />
              <mxPoint x="720" y="735" />
              <mxPoint x="720" y="521" />
            </Array>
          </mxGeometry>
        </mxCell>
        <mxCell id="jYscwoyKgJWhg-Qc2eCs-2" value="id_categoria_padre" style="text;html=1;align=left;verticalAlign=middle;resizable=0;points=[];autosize=1;strokeColor=none;fillColor=none;" vertex="1" parent="1">
          <mxGeometry x="879.88" y="78" width="130" height="30" as="geometry" />
        </mxCell>
        <mxCell id="jYscwoyKgJWhg-Qc2eCs-3" value="FK" style="shape=partialRectangle;overflow=hidden;connectable=0;fillColor=none;top=0;left=0;bottom=0;right=0;fontStyle=1;" vertex="1" parent="1">
          <mxGeometry x="840" y="80" width="30" height="30" as="geometry">
            <mxRectangle width="30" height="30" as="alternateBounds" />
          </mxGeometry>
        </mxCell>
      </root>
    </mxGraphModel>
  </diagram>
</mxfile>
